<mxfile host="app.diagrams.net" modified="2024-02-27T20:41:39.724Z" agent="Mozilla/5.0 (Windows NT 10.0; Win64; x64) AppleWebKit/537.36 (KHTML, like Gecko) Chrome/121.0.0.0 Safari/537.36" version="23.1.7" etag="WwLxgEFy_VvXYyozjSZ1" type="github">
  <diagram name="Page-1" id="_QdbO0g5aR9le-soW9Kx">
    <mxGraphModel>
      <root>
        <mxCell id="0" />
        <mxCell id="1" parent="0" />
      </root>
    </mxGraphModel>
  </diagram>
</mxfile>
